<?xml version="1.0" encoding="utf-8"?>
<!-- Generator: Adobe Illustrator 16.0.0, SVG Export Plug-In . SVG Version: 6.00 Build 0)  -->
<!DOCTYPE svg PUBLIC "-//W3C//DTD SVG 1.1//EN" "http://www.w3.org/Graphics/SVG/1.1/DTD/svg11.dtd">
<svg version="1.1" id="Layer_1" xmlns="http://www.w3.org/2000/svg" xmlns:xlink="http://www.w3.org/1999/xlink" x="0px" y="0px"
	 width="287.622px" height="53.842px" viewBox="0 0 287.622 53.842" enable-background="new 0 0 287.622 53.842"
	 xml:space="preserve">
<g>
	<g>
		<path fill="#2E3841" d="M39.83,1.438l-0.04-0.056l-1.795-1.318l-0.803-0.006v0.047L20.497,0L6.964,9.645L6.933,9.601l-0.735,0.524
			L5.59,11.932l-0.001,0.135l-4.93,14.674l4.629,14.632l0,0.042l0.607,1.918l0.018,0.013l0.011,0.034L20.007,53.73l17.527,0.111
			l14.271-10.173l5.568-16.568l-5.266-16.638L39.83,1.438z M5.354,34.952L2.762,26.76l2.76-8.216L5.354,34.952z M6.937,39.956
			l0.271-26.43l0.166-0.493l9.877,13.83L7.087,40.43L6.937,39.956z M18.249,28.258l5.91,8.275L8.288,41.555L18.249,28.258z
			 M20.669,51.734l-7.576-5.567l16.938,5.627L20.669,51.734z M8.937,43.063l16.22-5.132l9.852,13.793L8.937,43.063z M36.815,51.442
			L8.127,11.272l13.005-9.269l16.045,0.102L36.815,51.442z M38.667,21.854l15.707,5.118l-15.781,4.993L38.667,21.854z
			 M50.116,42.417l-6.713,4.785l9.351-12.632L50.116,42.417z M54.447,29.532L39.099,50.271l-0.644,0.458l0.124-17.044l16.194-5.124
			L54.447,29.532z M54.729,25.369l-16.05-5.229l0.124-16.976l0.538,0.396l15.162,21.098L54.729,25.369z M43.607,6.695l6.792,4.992
			l2.521,7.968L43.607,6.695z M89.38,28.474c0.859-1.108,1.289-2.542,1.289-4.303v-0.062c0-2.07-0.621-3.728-1.863-4.97
			c-1.471-1.471-3.582-2.205-6.336-2.205H72.53v21.741h4.783v-6.957h3.758l4.658,6.957h5.592l-5.311-7.765
			C87.397,30.394,88.521,29.581,89.38,28.474z M85.823,24.42c0,0.932-0.316,1.677-0.947,2.236c-0.631,0.559-1.537,0.838-2.717,0.838
			h-4.846v-6.243h4.752c1.18,0,2.102,0.26,2.764,0.777s0.994,1.294,0.994,2.329V24.42z M108.751,29.39
			c0,1.738-0.414,3.043-1.242,3.913s-1.977,1.305-3.447,1.305s-2.619-0.451-3.447-1.352s-1.242-2.241-1.242-4.021v-12.3h-4.783
			v12.423c0,3.211,0.838,5.623,2.516,7.237c1.678,1.615,3.975,2.423,6.895,2.423c1.449,0,2.766-0.201,3.945-0.605
			c1.18-0.403,2.184-1.015,3.012-1.832c0.828-0.818,1.465-1.838,1.91-3.061c0.445-1.221,0.668-2.659,0.668-4.317V16.935h-4.783
			V29.39z M133.044,27.309c0.391-0.207,0.754-0.456,1.094-0.746c0.34-0.289,0.639-0.626,0.896-1.009
			c0.256-0.384,0.463-0.812,0.617-1.289s0.23-1.025,0.23-1.646v-0.062c0-1.471-0.496-2.703-1.488-3.697
			c-1.281-1.283-3.172-1.925-5.674-1.925h-10.076v21.741h10.326c1.219,0,2.33-0.124,3.332-0.373
			c1.004-0.248,1.861-0.621,2.574-1.118c0.713-0.496,1.262-1.118,1.645-1.863c0.381-0.745,0.572-1.614,0.572-2.609V32.65
			c0-1.449-0.361-2.583-1.082-3.401C135.29,28.432,134.3,27.785,133.044,27.309z M123.304,21.128h4.721
			c1.014,0,1.791,0.191,2.328,0.574c0.539,0.383,0.809,0.938,0.809,1.662v0.062c0,0.808-0.311,1.393-0.932,1.755
			s-1.459,0.543-2.516,0.543h-4.41V21.128z M132.372,32.122c0,0.808-0.301,1.403-0.9,1.786c-0.602,0.384-1.428,0.574-2.484,0.574
			h-5.684V29.7h5.527c1.242,0,2.145,0.212,2.703,0.637c0.559,0.424,0.838,0.999,0.838,1.724V32.122z M148.46,25.662l-5.186-8.728
			h-5.592l8.355,13.169v8.572h4.783v-8.665l8.355-13.076h-5.436L148.46,25.662z M178.964,28.474
			c0.859-1.108,1.289-2.542,1.289-4.303v-0.062c0-2.07-0.621-3.728-1.863-4.97c-1.471-1.471-3.582-2.205-6.336-2.205h-9.939v21.741
			h4.783v-6.957h3.758l4.66,6.957h5.59l-5.311-7.765C176.981,30.394,178.104,29.581,178.964,28.474z M175.409,24.42
			c0,0.932-0.316,1.677-0.947,2.236c-0.633,0.559-1.539,0.838-2.719,0.838h-4.846v-6.243h4.752c1.182,0,2.102,0.26,2.766,0.777
			c0.662,0.518,0.994,1.294,0.994,2.329V24.42z M203.157,19.839c-1.025-1.005-2.242-1.802-3.65-2.392
			c-1.408-0.591-2.949-0.886-4.627-0.886s-3.227,0.295-4.645,0.886c-1.418,0.59-2.639,1.397-3.664,2.422
			c-1.025,1.025-1.828,2.216-2.408,3.572s-0.869,2.811-0.869,4.363v0.062c0,1.553,0.285,3.008,0.854,4.363
			c0.57,1.356,1.367,2.537,2.393,3.542c1.025,1.004,2.24,1.801,3.648,2.392c1.408,0.59,2.951,0.885,4.629,0.885
			s3.225-0.295,4.643-0.885c1.418-0.591,2.641-1.398,3.666-2.423c1.025-1.025,1.826-2.216,2.406-3.572
			c0.58-1.355,0.871-2.812,0.871-4.364v-0.062c0-1.553-0.285-3.008-0.855-4.364C204.979,22.023,204.183,20.843,203.157,19.839z
			 M201.401,27.867c0,0.932-0.16,1.807-0.48,2.625c-0.322,0.817-0.768,1.537-1.336,2.158c-0.57,0.621-1.258,1.107-2.064,1.46
			c-0.809,0.352-1.689,0.527-2.641,0.527c-0.975,0-1.859-0.181-2.656-0.543s-1.49-0.854-2.08-1.476s-1.047-1.346-1.367-2.174
			c-0.322-0.828-0.482-1.708-0.482-2.641v-0.062c0-0.932,0.16-1.807,0.482-2.624c0.32-0.818,0.766-1.538,1.336-2.159
			c0.568-0.621,1.252-1.107,2.049-1.46c0.797-0.352,1.682-0.528,2.656-0.528c0.953,0,1.832,0.182,2.641,0.544
			c0.807,0.362,1.506,0.854,2.096,1.476c0.59,0.62,1.045,1.346,1.367,2.174c0.32,0.829,0.48,1.709,0.48,2.64V27.867z
			 M210.753,38.676h4.783V16.935h-4.783V38.676z M240.181,23.473c-0.561-1.314-1.352-2.459-2.377-3.433
			c-1.025-0.973-2.246-1.734-3.666-2.282c-1.418-0.549-2.977-0.823-4.674-0.823h-8.479v21.741h8.479
			c1.697,0,3.256-0.279,4.674-0.839c1.42-0.559,2.641-1.324,3.666-2.298c1.025-0.973,1.816-2.122,2.377-3.447
			c0.559-1.325,0.838-2.754,0.838-4.287v-0.062C241.019,26.211,240.739,24.788,240.181,23.473z M236.019,27.867
			c0,0.974-0.162,1.854-0.482,2.641s-0.766,1.47-1.336,2.049c-0.568,0.581-1.258,1.025-2.064,1.336
			c-0.809,0.311-1.699,0.466-2.672,0.466h-3.695V21.251h3.695c0.973,0,1.863,0.161,2.672,0.481c0.807,0.321,1.496,0.772,2.064,1.352
			c0.57,0.58,1.016,1.273,1.336,2.081s0.482,1.688,0.482,2.64V27.867z"/>
	</g>
</g>
<path fill="#2AB131" d="M244.649,38.676h3.344v-16.06h-3.344V38.676z"/>
<path fill="#2AB131" d="M254.169,36.212c-0.338-0.249-0.506-0.602-0.506-1.056v-0.044c0-0.528,0.205-0.932,0.615-1.211
	c0.41-0.277,0.977-0.417,1.695-0.417c0.41,0,0.795,0.04,1.154,0.121c0.359,0.08,0.686,0.187,0.979,0.318v0.594
	c0,0.616-0.238,1.115-0.715,1.496c-0.477,0.382-1.111,0.572-1.902,0.572C254.946,36.586,254.507,36.462,254.169,36.212z
	 M256.567,38.489c0.572-0.271,1.062-0.635,1.473-1.09v1.276h3.234v-6.842c0-0.792-0.102-1.507-0.307-2.146
	c-0.207-0.638-0.529-1.176-0.969-1.616c-0.426-0.426-0.965-0.752-1.617-0.979c-0.652-0.228-1.441-0.342-2.365-0.342
	c-0.998,0-1.848,0.088-2.551,0.264c-0.705,0.177-1.379,0.404-2.025,0.683l0.836,2.552c0.543-0.205,1.061-0.362,1.551-0.474
	c0.492-0.109,1.061-0.164,1.705-0.164c0.836,0,1.467,0.183,1.893,0.55c0.426,0.366,0.639,0.901,0.639,1.605v0.198
	c-0.426-0.146-0.863-0.264-1.309-0.352c-0.449-0.088-0.973-0.132-1.574-0.132c-0.703,0-1.346,0.077-1.924,0.23
	c-0.58,0.154-1.078,0.386-1.496,0.693s-0.746,0.697-0.98,1.166s-0.352,1.026-0.352,1.672v0.044c0,0.587,0.105,1.104,0.318,1.551
	s0.504,0.825,0.869,1.133c0.367,0.309,0.797,0.539,1.287,0.693c0.492,0.153,1.016,0.23,1.574,0.23
	C255.298,38.896,255.995,38.761,256.567,38.489z"/>
<path fill="#2AB131" d="M269.267,35.827c-0.344-0.154-0.645-0.374-0.9-0.66c-0.258-0.286-0.463-0.631-0.617-1.034
	c-0.154-0.402-0.23-0.847-0.23-1.331v-0.044c0-0.483,0.076-0.928,0.23-1.331c0.154-0.402,0.359-0.747,0.617-1.034
	c0.256-0.285,0.557-0.505,0.9-0.66c0.346-0.153,0.717-0.23,1.111-0.23c0.396,0,0.768,0.077,1.111,0.23
	c0.344,0.155,0.648,0.375,0.914,0.66c0.264,0.287,0.473,0.632,0.627,1.034c0.152,0.403,0.23,0.848,0.23,1.331v0.044
	c0,0.499-0.078,0.946-0.23,1.343c-0.154,0.396-0.363,0.736-0.627,1.022c-0.266,0.286-0.57,0.506-0.914,0.66
	c-0.344,0.153-0.715,0.23-1.111,0.23C269.983,36.058,269.612,35.98,269.267,35.827z M273.261,38.5
	c0.645-0.265,1.213-0.656,1.705-1.177c0.49-0.521,0.887-1.159,1.188-1.914s0.451-1.624,0.451-2.607v-0.044
	c0-0.982-0.15-1.852-0.451-2.606c-0.301-0.756-0.701-1.394-1.199-1.914c-0.498-0.521-1.07-0.913-1.715-1.178
	c-0.646-0.264-1.314-0.396-2.002-0.396c-0.881,0-1.611,0.18-2.189,0.539c-0.58,0.359-1.074,0.817-1.486,1.375v-5.962h-3.344v16.06
	h3.344v-1.54c0.396,0.47,0.885,0.88,1.465,1.232c0.578,0.352,1.314,0.527,2.211,0.527C271.94,38.896,272.614,38.764,273.261,38.5z"
	/>
<path fill="#2AB131" d="M284.882,38.665c0.551-0.154,1.031-0.385,1.441-0.693c0.41-0.308,0.73-0.699,0.957-1.177
	c0.229-0.477,0.342-1.045,0.342-1.705v-0.044c0-0.542-0.109-1.005-0.33-1.386s-0.5-0.704-0.836-0.968
	c-0.338-0.265-0.719-0.487-1.145-0.671s-0.844-0.342-1.254-0.474c-0.322-0.103-0.627-0.205-0.912-0.309
	c-0.287-0.102-0.539-0.208-0.76-0.318c-0.221-0.109-0.396-0.228-0.527-0.353c-0.133-0.124-0.199-0.267-0.199-0.429v-0.043
	c0-0.235,0.104-0.43,0.309-0.584c0.205-0.153,0.514-0.23,0.924-0.23c0.426,0,0.916,0.099,1.475,0.297
	c0.557,0.197,1.129,0.466,1.715,0.803l1.277-2.31c-0.646-0.426-1.354-0.759-2.123-1.002c-0.771-0.241-1.529-0.362-2.277-0.362
	c-0.602,0-1.162,0.081-1.684,0.242c-0.52,0.162-0.975,0.403-1.363,0.726c-0.389,0.323-0.697,0.715-0.924,1.177
	c-0.229,0.463-0.342,0.994-0.342,1.596v0.044c0,0.571,0.105,1.056,0.318,1.451c0.213,0.396,0.488,0.73,0.826,1.002
	c0.336,0.271,0.715,0.491,1.133,0.66s0.832,0.312,1.242,0.429c0.322,0.103,0.631,0.198,0.924,0.286
	c0.295,0.088,0.555,0.18,0.781,0.274c0.229,0.096,0.408,0.21,0.539,0.342c0.133,0.132,0.199,0.285,0.199,0.461v0.044
	c0,0.265-0.115,0.478-0.342,0.639c-0.227,0.162-0.582,0.242-1.066,0.242c-0.559,0-1.156-0.117-1.793-0.353
	c-0.639-0.234-1.281-0.587-1.926-1.056l-1.43,2.2c0.791,0.616,1.625,1.066,2.496,1.353c0.873,0.286,1.729,0.429,2.564,0.429
	C283.741,38.896,284.333,38.818,284.882,38.665z"/>
</svg>
