<?xml version="1.0" encoding="utf-8"?>
<!-- Generator: Adobe Illustrator 15.1.0, SVG Export Plug-In . SVG Version: 6.00 Build 0)  -->
<!DOCTYPE svg PUBLIC "-//W3C//DTD SVG 1.1//EN" "http://www.w3.org/Graphics/SVG/1.1/DTD/svg11.dtd">
<svg version="1.1" id="Layer_1" xmlns="http://www.w3.org/2000/svg" xmlns:xlink="http://www.w3.org/1999/xlink" x="0px" y="0px"
	 width="500px" height="500px" viewBox="0 0 500 500" enable-background="new 0 0 500 500" xml:space="preserve">
<g>
	<polygon fill="none" stroke="#000000" stroke-width="4" stroke-miterlimit="10" points="135.562,362.549 42.107,294.732 
		6.47,184.726 42.107,74.907 135.562,7.088 251.207,7.088 344.654,74.907 380.302,184.726 344.654,294.732 251.207,362.549 	"/>
	<line fill="none" stroke="#231F20" stroke-miterlimit="10" x1="251.207" y1="7.088" x2="380.302" y2="184.726"/>
	<line fill="none" stroke="#231F20" stroke-miterlimit="10" x1="380.302" y1="184.726" x2="251.207" y2="362.549"/>
	<line fill="none" stroke="#231F20" stroke-miterlimit="10" x1="251.207" y1="362.549" x2="42.107" y2="294.732"/>
	<line fill="none" stroke="#231F20" stroke-miterlimit="10" x1="42.107" y1="294.732" x2="42.107" y2="74.907"/>
	<line fill="none" stroke="#231F20" stroke-width="4" stroke-miterlimit="10" x1="42.107" y1="74.907" x2="251.207" y2="362.549"/>
	<line fill="none" stroke="#231F20" stroke-miterlimit="10" x1="171.384" y1="252.733" x2="42.107" y2="294.732"/>
	<line fill="none" stroke="#231F20" stroke-miterlimit="10" x1="122.834" y1="186.002" x2="42.107" y2="294.732"/>
	<line fill="none" stroke="#231F20" stroke-miterlimit="10" x1="251.207" y1="145.453" x2="380.302" y2="184.726"/>
	<line fill="none" stroke="#231F20" stroke-width="3" stroke-miterlimit="10" x1="251.207" y1="362.549" x2="251.207" y2="7.088"/>
	<line fill="none" stroke="#231F20" stroke-miterlimit="10" x1="380.302" y1="183.274" x2="251.207" y2="225.274"/>
</g>
</svg>
